<?xml version="1.0" encoding="UTF-8"?>
<svg width="800" height="600" version="1.1" viewBox="0 0 800 600" xmlns="http://www.w3.org/2000/svg">
 <defs>
  <linearGradient id="a" x1="0" x2="0" y1="0" y2="1">
   <stop stop-color="#4338ca" stop-opacity=".2" offset="0"/>
   <stop stop-color="#7e22ce" stop-opacity=".15" offset="1"/>
  </linearGradient>
  <filter id="blur" x="-50%" y="-50%" width="200%" height="200%">
   <feGaussianBlur in="SourceGraphic" stdDeviation="3"/>
  </filter>
 </defs>
 <g fill="none" stroke="#fff" stroke-opacity=".15">
  <!-- Jellyfish body -->
  <path d="M400,100 C460,100 500,150 500,200 C500,250 460,300 400,300 C340,300 300,250 300,200 C300,150 340,100 400,100 Z" stroke-width="2" filter="url(#blur)"/>
  <!-- Tentacles -->
  <path d="M350,280 Q380,350 350,400" stroke-width="1.5" filter="url(#blur)"/>
  <path d="M370,280 Q400,360 380,420" stroke-width="1.5" filter="url(#blur)"/>
  <path d="M400,280 Q420,340 410,400" stroke-width="1.5" filter="url(#blur)"/>
  <path d="M430,280 Q440,350 450,400" stroke-width="1.5" filter="url(#blur)"/>
  <path d="M450,280 Q460,330 470,380" stroke-width="1.5" filter="url(#blur)"/>
  <!-- Small bubbles -->
  <circle cx="380" cy="150" r="5" fill="#fff" fill-opacity=".1"/>
  <circle cx="420" cy="160" r="3" fill="#fff" fill-opacity=".1"/>
  <circle cx="390" cy="180" r="4" fill="#fff" fill-opacity=".1"/>
 </g>
 <rect width="100%" height="100%" fill="url(#a)"/>
</svg>
